<svg width="20" height="20" viewBox="0 0 20 20" fill="none" xmlns="http://www.w3.org/2000/svg">
<path d="M3.78964 13.4466L6.5534 13.4466L6.5534 16.2104C6.5534 16.4472 6.5534 16.6052 6.79029 16.7631C7.10615 17.079 7.57994 17.079 7.8958 16.7631C8.05373 16.6052 8.13269 16.4472 8.13269 16.2104L8.13269 12.9728C8.13269 12.6569 8.05373 12.3411 7.81683 12.1832C7.57994 11.9463 7.34305 11.8673 7.02719 11.8673L3.78964 11.8673C3.55275 11.8673 3.39482 11.8673 3.23689 12.1042C3.07896 12.2621 2.99999 12.4201 2.99999 12.6569C2.99999 12.8938 2.99999 13.0518 3.23689 13.2097C3.39482 13.3676 3.55275 13.4466 3.78964 13.4466Z" fill="#6B7280"/>
<path d="M3.78964 8.13269L7.02719 8.13269C7.34304 8.13269 7.6589 8.05373 7.81683 7.81683C8.05373 7.57994 8.13269 7.34304 8.13269 7.02719L8.13269 3.78964C8.13269 3.55275 8.13269 3.39482 7.8958 3.23689C7.73787 3.07896 7.57994 2.99999 7.34305 2.99999C7.10615 2.99999 6.94822 2.99999 6.79029 3.23689C6.63236 3.47378 6.5534 3.55275 6.5534 3.78964L6.5534 6.5534L3.78964 6.5534C3.55275 6.5534 3.39482 6.5534 3.23689 6.79029C3.07896 6.94822 2.99999 7.10615 2.99999 7.34304C2.99999 7.57994 2.99999 7.73787 3.23689 7.8958C3.39482 8.05373 3.55275 8.13269 3.78964 8.13269Z" fill="#6B7280"/>
<path d="M12.1832 7.81686C12.4201 8.05376 12.6569 8.13272 12.9728 8.13272L16.2104 8.13272C16.4472 8.13272 16.6052 8.13272 16.7631 7.89583C16.921 7.65893 17 7.57997 17 7.34308C17 7.10618 17 6.94825 16.7631 6.79032C16.6052 6.63239 16.4472 6.55343 16.2104 6.55343L13.4466 6.55343L13.4466 3.78967C13.4466 3.55278 13.4466 3.39485 13.2097 3.23692C13.0518 3.07899 12.8938 3.00002 12.6569 3.00002C12.4201 3.00002 12.2621 3.00002 12.1042 3.23692C11.9463 3.39485 11.8673 3.55278 11.8673 3.78967L11.8673 7.02722C11.8673 7.34307 11.9463 7.65893 12.1832 7.81686Z" fill="#6B7280"/>
<path d="M13.2097 16.7631C13.3676 16.6052 13.4466 16.4473 13.4466 16.2104L13.4466 13.4466L16.2104 13.4466C16.4472 13.4466 16.6052 13.4466 16.7631 13.2097C16.921 13.0518 17 12.8939 17 12.657C17 12.4201 17 12.2622 16.7631 12.1042C16.6052 11.9463 16.4472 11.8673 16.2104 11.8673L12.9728 11.8673C12.6569 11.8673 12.3411 11.9463 12.1832 12.1832C11.9463 12.4201 11.8673 12.657 11.8673 12.9728L11.8673 16.2104C11.8673 16.4473 11.8673 16.6052 12.1042 16.7631C12.4201 17.079 12.8938 17.079 13.2097 16.7631Z" fill="#6B7280"/>
</svg>
