<svg width="10" height="10" viewBox="0 0 10 10" fill="none" xmlns="http://www.w3.org/2000/svg">
<path d="M5.075 6.45L2.175 9.35C1.99167 9.53333 1.75833 9.625 1.475 9.625C1.19167 9.625 0.958333 9.53333 0.775 9.35C0.591667 9.16667 0.5 8.93333 0.5 8.65C0.5 8.36667 0.591667 8.13333 0.775 7.95L3.675 5.05L0.775 2.175C0.591667 1.99167 0.5 1.75833 0.5 1.475C0.5 1.19167 0.591667 0.958333 0.775 0.775C0.958333 0.591667 1.19167 0.5 1.475 0.5C1.75833 0.5 1.99167 0.591667 2.175 0.775L5.075 3.675L7.95 0.775C8.13333 0.591667 8.36667 0.5 8.65 0.5C8.93333 0.5 9.16667 0.591667 9.35 0.775C9.55 0.975 9.65 1.2125 9.65 1.4875C9.65 1.7625 9.55 1.99167 9.35 2.175L6.45 5.05L9.35 7.95C9.53333 8.13333 9.625 8.36667 9.625 8.65C9.625 8.93333 9.53333 9.16667 9.35 9.35C9.15 9.55 8.9125 9.65 8.6375 9.65C8.3625 9.65 8.13333 9.55 7.95 9.35L5.075 6.45Z" fill="#6B7280"/>
</svg>
