<svg width="10" height="11" viewBox="0 0 10 11" fill="none" xmlns="http://www.w3.org/2000/svg">
<path d="M1.875 11C1.53125 11 1.23698 10.8694 0.992188 10.6083C0.747396 10.3472 0.625 10.0333 0.625 9.66667V2C0.447917 2 0.299479 1.93611 0.179688 1.80833C0.0598958 1.68056 0 1.52222 0 1.33333C0 1.14444 0.0598958 0.986111 0.179688 0.858333C0.299479 0.730556 0.447917 0.666667 0.625 0.666667H3.125C3.125 0.477778 3.1849 0.319444 3.30469 0.191667C3.42448 0.0638889 3.57292 0 3.75 0H6.25C6.42708 0 6.57552 0.0638889 6.69531 0.191667C6.8151 0.319444 6.875 0.477778 6.875 0.666667H9.375C9.55208 0.666667 9.70052 0.730556 9.82031 0.858333C9.9401 0.986111 10 1.14444 10 1.33333C10 1.52222 9.9401 1.68056 9.82031 1.80833C9.70052 1.93611 9.55208 2 9.375 2V9.66667C9.375 10.0333 9.2526 10.3472 9.00781 10.6083C8.76302 10.8694 8.46875 11 8.125 11H1.875ZM8.125 2H1.875V9.66667H8.125V2ZM3.75 8.33333C3.92708 8.33333 4.07552 8.26944 4.19531 8.14167C4.3151 8.01389 4.375 7.85556 4.375 7.66667V4C4.375 3.81111 4.3151 3.65278 4.19531 3.525C4.07552 3.39722 3.92708 3.33333 3.75 3.33333C3.57292 3.33333 3.42448 3.39722 3.30469 3.525C3.1849 3.65278 3.125 3.81111 3.125 4V7.66667C3.125 7.85556 3.1849 8.01389 3.30469 8.14167C3.42448 8.26944 3.57292 8.33333 3.75 8.33333ZM6.25 8.33333C6.42708 8.33333 6.57552 8.26944 6.69531 8.14167C6.8151 8.01389 6.875 7.85556 6.875 7.66667V4C6.875 3.81111 6.8151 3.65278 6.69531 3.525C6.57552 3.39722 6.42708 3.33333 6.25 3.33333C6.07292 3.33333 5.92448 3.39722 5.80469 3.525C5.6849 3.65278 5.625 3.81111 5.625 4V7.66667C5.625 7.85556 5.6849 8.01389 5.80469 8.14167C5.92448 8.26944 6.07292 8.33333 6.25 8.33333Z" fill="#6B7280"/>
</svg>
