<svg width="20" height="20" viewBox="0 0 20 20" fill="none" xmlns="http://www.w3.org/2000/svg">
<g clip-path="url(#clip0_2050_433)">
<path d="M2.70001 6.73H17.31C17.61 6.73 18 6.42 18 5.96C18 5.5 17.61 5.19 17.31 5.19H2.70001C2.40001 5.19 2 5.5 2 5.96C2 6.42 2.40001 6.73 2.70001 6.73Z" fill="black"/>
<path d="M10.5 13.3H5.5C5.2 13.3 5 13.5 5 13.8C5 14.1 5.2 14.3 5.5 14.3H10.5C10.8 14.3 11 14.1 11 13.8C11 13.5 10.8 13.3 10.5 13.3Z" fill="black"/>
<path d="M14.5 10.8H5.5C5.2 10.8 5 11 5 11.3C5 11.6 5.2 11.8 5.5 11.8H14.5C14.8 11.8 15 11.6 15 11.3C15 11 14.8 10.8 14.5 10.8Z" fill="black"/>
<path d="M16 7.5H4C2.9 7.5 2 8.4 2 9.5V15.5C2 16.6 2.9 17.5 4 17.5H16C17.1 17.5 18 16.6 18 15.5V9.5C18 8.4 17.1 7.5 16 7.5ZM16.42 10.37V15.07C16.42 15.58 16.05 15.93 15.5 15.93H4.47998C3.92998 15.93 3.56 15.59 3.56 15.07V9.94C3.56 9.43 3.92998 9.08 4.47998 9.08H15.5C16.05 9.08 16.42 9.42 16.42 9.94V10.37Z" fill="black"/>
<path d="M13.32 4.39998H17.28C17.51 4.39998 17.61 4.09998 17.42 3.95998L15.44 2.58998C15.36 2.52998 15.25 2.52998 15.17 2.58998L13.19 3.95998C13 4.08998 13.09 4.39998 13.33 4.39998H13.32Z" fill="black"/>
</g>
<defs>
<clipPath id="clip0_2050_433">
<rect width="16" height="16" fill="white" transform="translate(2 2)"/>
</clipPath>
</defs>
</svg>
