<svg width="18" height="18" viewBox="0 0 18 18" fill="none" xmlns="http://www.w3.org/2000/svg">
<circle cx="9" cy="9" r="8.5" stroke="#6B7280"/>
<path d="M8.25289 15C7.93455 15 7.66292 14.8836 7.43801 14.6509C7.21319 14.4181 7.10078 14.1369 7.10078 13.8074V11.5593H5.62961C5.26256 11.5593 4.95014 11.4283 4.69233 11.1664C4.43444 10.9045 4.3055 10.5821 4.3055 10.1993V6.37005C4.3055 5.71791 4.52652 5.15986 4.96857 4.69592C5.41071 4.23197 5.94732 4 6.5784 4H12.6392C12.8241 4 12.9814 4.06711 13.111 4.20134C13.2407 4.33547 13.3055 4.49827 13.3055 4.68974V10.1993C13.3055 10.5821 13.1772 10.9045 12.9207 11.1664C12.6642 11.4283 12.3494 11.5593 11.9761 11.5593H10.5049V13.8074C10.5049 14.1369 10.3925 14.4181 10.1677 14.6509C9.94288 14.8836 9.67125 15 9.35282 15H8.25289ZM5.45761 8.04404H12.1534V5.1926H11.4663V6.59889C11.4663 6.76604 11.4119 6.90607 11.303 7.01897C11.1942 7.13177 11.0592 7.18818 10.898 7.18818C10.7368 7.18818 10.5992 7.1292 10.4851 7.01125C10.3712 6.89321 10.3142 6.75108 10.3142 6.58486V5.1926H9.56968V5.67287C9.56968 5.84002 9.51529 5.98005 9.40649 6.09295C9.29761 6.20575 9.16256 6.26216 9.00136 6.26216C8.84024 6.26216 8.70267 6.20318 8.58863 6.08523C8.47468 5.96719 8.41771 5.82506 8.41771 5.65884V5.1926H6.5784C6.25934 5.1926 5.99277 5.30639 5.77871 5.53397C5.56464 5.76154 5.45761 6.04024 5.45761 6.37005V8.04404ZM5.62961 10.3667H11.9761C12.0248 10.3667 12.0665 10.3505 12.1012 10.3181C12.136 10.2858 12.1534 10.2461 12.1534 10.1993V9.23665H5.45761V10.1993C5.45761 10.2461 5.4741 10.2858 5.50708 10.3181C5.54015 10.3505 5.58099 10.3667 5.62961 10.3667Z" fill="#6B7280"/>
</svg>
