<svg width="20" height="20" viewBox="0 0 20 20" fill="none" xmlns="http://www.w3.org/2000/svg">
<g clip-path="url(#clip0_2057_36)">
<path d="M12.1413 13.84C12.3296 14.0533 12.6072 14.0533 12.7955 13.84L15.8587 10.3705C16.0471 10.1572 16.0471 9.84281 15.8587 9.62947L12.7955 6.16C12.6072 5.94667 12.3296 5.94667 12.1413 6.16C11.9529 6.37333 11.9529 6.68772 12.1413 6.90105L14.8377 10.0561L12.1413 13.1102C11.9529 13.3235 11.9529 13.6379 12.1413 13.8512V13.84Z" fill="black" fill-opacity="0.6"/>
<path d="M7.20446 13.8402C7.39281 14.0533 7.67038 14.0533 7.85874 13.8402C8.04709 13.6272 8.04709 13.3132 7.85874 13.1002L5.16233 10.0505L7.85874 6.89979C8.04709 6.68676 8.04709 6.37281 7.85874 6.15978C7.67038 5.94674 7.39281 5.94674 7.20446 6.15978L4.14126 9.62439C3.95291 9.83742 3.95291 10.1514 4.14126 10.3644L7.20446 13.829V13.8402Z" fill="black" fill-opacity="0.6"/>
<path d="M9.17936 12.963C9.33074 13.0578 9.55383 12.963 9.55383 12.763L10.972 7.53168C11.0437 7.33169 10.972 7.03696 10.8206 7.03696C10.6693 6.94223 10.4462 7.03696 10.4462 7.23696L9.02798 12.4683C8.95627 12.6683 9.02798 12.963 9.17936 12.963Z" fill="black" fill-opacity="0.6"/>
<path d="M16 2H4C2.9 2 2 2.9 2 4V16C2 17.1 2.9 18 4 18H16C17.1 18 18 17.1 18 16V4C18 2.9 17.1 2 16 2ZM3.58 4.48C3.58 3.93 3.92 3.56 4.44 3.56H15.57C16.08 3.56 16.43 3.93 16.43 4.48V15.5C16.43 16.05 16.09 16.42 15.57 16.42H4.44C3.93 16.42 3.58 16.05 3.58 15.5V4.48Z" fill="black" fill-opacity="0.6"/>
</g>
<defs>
<clipPath id="clip0_2057_36">
<rect width="16" height="16" fill="white" transform="translate(2 2)"/>
</clipPath>
</defs>
</svg>
