<svg width="20" height="20" viewBox="0 0 20 20" fill="none" xmlns="http://www.w3.org/2000/svg">
<path d="M7.34305 15.4207H4.57929V12.657C4.57929 12.4201 4.57929 12.2621 4.3424 12.1042C4.02654 11.7883 3.55275 11.7883 3.23689 12.1042C3.07896 12.2621 3 12.4201 3 12.657V15.8945C3 16.2104 3.07896 16.5262 3.31586 16.6841C3.55275 16.921 3.78965 17 4.1055 17H7.34305C7.57995 17 7.73787 17 7.8958 16.7631C8.05373 16.6052 8.1327 16.4473 8.1327 16.2104C8.1327 15.9735 8.1327 15.8155 7.8958 15.6576C7.73787 15.4997 7.57995 15.4207 7.34305 15.4207Z" fill="#6B7280"/>
<path d="M7.34305 3H4.1055C3.78965 3 3.47379 3.07896 3.31586 3.31586C3.07896 3.55275 3 3.78965 3 4.1055V7.34305C3 7.57994 3 7.73787 3.23689 7.8958C3.39482 8.05373 3.55275 8.1327 3.78965 8.1327C4.02654 8.1327 4.18447 8.1327 4.3424 7.8958C4.50033 7.65891 4.57929 7.57994 4.57929 7.34305V4.57929H7.34305C7.57995 4.57929 7.73787 4.57929 7.8958 4.3424C8.05373 4.18447 8.1327 4.02654 8.1327 3.78965C8.1327 3.55275 8.1327 3.39482 7.8958 3.23689C7.73787 3.07896 7.57995 3 7.34305 3Z" fill="#6B7280"/>
<path d="M16.6841 3.31586C16.4473 3.07896 16.2104 3 15.8945 3H12.657C12.4201 3 12.2621 3 12.1042 3.23689C11.9463 3.47379 11.8673 3.55275 11.8673 3.78965C11.8673 4.02654 11.8673 4.18447 12.1042 4.3424C12.2621 4.50033 12.4201 4.57929 12.657 4.57929H15.4207V7.34305C15.4207 7.57994 15.4207 7.73787 15.6576 7.8958C15.8155 8.05373 15.9735 8.1327 16.2104 8.1327C16.4473 8.1327 16.6052 8.1327 16.7631 7.8958C16.921 7.73787 17 7.57994 17 7.34305V4.1055C17 3.78965 16.921 3.47379 16.6841 3.31586Z" fill="#6B7280"/>
<path d="M15.6576 12.1042C15.4997 12.2621 15.4207 12.4201 15.4207 12.657V15.4207H12.657C12.4201 15.4207 12.2621 15.4207 12.1042 15.6576C11.9463 15.8155 11.8673 15.9735 11.8673 16.2104C11.8673 16.4473 11.8673 16.6052 12.1042 16.7631C12.2621 16.921 12.4201 17 12.657 17H15.8945C16.2104 17 16.5262 16.921 16.6841 16.6841C16.921 16.4473 17 16.2104 17 15.8945V12.657C17 12.4201 17 12.2621 16.7631 12.1042C16.4473 11.7883 15.9735 11.7883 15.6576 12.1042Z" fill="#6B7280"/>
</svg>
