<svg width="20" height="20" viewBox="0 0 20 20" fill="none" xmlns="http://www.w3.org/2000/svg">
<path d="M14.5 15.8H2.5C2.2 15.8 2 16 2 16.3C2 16.6 2.2 16.8 2.5 16.8H14.5C14.8 16.8 15 16.6 15 16.3C15 16 14.8 15.8 14.5 15.8Z" fill="#6B7280"/>
<path d="M2.5 4.20001H14.5C14.8 4.20001 15 4.00001 15 3.70001C15 3.40001 14.8 3.20001 14.5 3.20001H2.5C2.2 3.20001 2 3.40001 2 3.70001C2 4.00001 2.2 4.20001 2.5 4.20001Z" fill="#6B7280"/>
<path d="M2.5 6.70001H7.5C7.8 6.70001 8 6.50001 8 6.20001C8 5.90001 7.8 5.70001 7.5 5.70001H2.5C2.2 5.70001 2 5.90001 2 6.20001C2 6.50001 2.2 6.70001 2.5 6.70001Z" fill="#6B7280"/>
<path d="M2.5 11.8H7.5C7.8 11.8 8 11.6 8 11.3C8 11 7.8 10.8 7.5 10.8H2.5C2.2 10.8 2 11 2 11.3C2 11.6 2.2 11.8 2.5 11.8Z" fill="#6B7280"/>
<path d="M2.5 14.3H7.5C7.8 14.3 8 14.1 8 13.8C8 13.5 7.8 13.3 7.5 13.3H2.5C2.2 13.3 2 13.5 2 13.8C2 14.1 2.2 14.3 2.5 14.3Z" fill="#6B7280"/>
<path d="M2.5 9.20001H7.5C7.8 9.20001 8 9.00001 8 8.70001C8 8.40001 7.8 8.20001 7.5 8.20001H2.5C2.2 8.20001 2 8.40001 2 8.70001C2 9.00001 2.2 9.20001 2.5 9.20001Z" fill="#6B7280"/>
<path d="M16 4.89999H11C9.9 4.89999 9 5.79999 9 6.89999V13.1C9 14.2 9.9 15.1 11 15.1H16C17.1 15.1 18 14.2 18 13.1V6.89999C18 5.79999 17.1 4.89999 16 4.89999ZM17.1 7.39999V13.1C17.1 13.7 16.7 14.1 16.1 14.1H11.1C10.5 14.1 10.1 13.7 10.1 13.1V6.89999C10.1 6.29999 10.5 5.89999 11.1 5.89999H16.1C16.7 5.89999 17.1 6.29999 17.1 6.89999V7.39999Z" fill="#6B7280"/>
</svg>
