<svg width="20" height="20" viewBox="0 0 20 20" fill="none" xmlns="http://www.w3.org/2000/svg">
<path d="M2.5 4H17.5C17.8 4 18 3.8 18 3.5C18 3.2 17.8 3 17.5 3H2.5C2.2 3 2 3.2 2 3.5C2 3.8 2.2 4 2.5 4Z" fill="#6B7280"/>
<path d="M14.6 5.20001H5.40002C4.30002 5.20001 3.40002 6.10001 3.40002 7.20001V10.3C3.40002 11.4 4.30002 12.3 5.40002 12.3H14.6C15.7 12.3 16.6 11.4 16.6 10.3V7.20001C16.6 6.10001 15.7 5.20001 14.6 5.20001ZM15.7 7.70001V10.3C15.7 10.9 15.3 11.3 14.7 11.3H5.50002C4.90002 11.3 4.50002 10.9 4.50002 10.3V7.20001C4.50002 6.60001 4.90002 6.20001 5.50002 6.20001H14.7C15.3 6.20001 15.7 6.60001 15.7 7.20001V7.70001Z" fill="#6B7280"/>
<path d="M2 14C2 13.7 2.2 13.5 2.5 13.5H17.5C17.8 13.5 18 13.7 18 14C18 14.3 17.8 14.5 17.5 14.5H2.5C2.2 14.5 2 14.3 2 14ZM2 16.5C2 16.2 2.2 16 2.5 16H10.5C10.8 16 11 16.2 11 16.5C11 16.8 10.8 17 10.5 17H2.5C2.2 17 2 16.8 2 16.5Z" fill="#6B7280"/>
</svg>
