<svg width="20" height="20" viewBox="0 0 20 20" fill="none" xmlns="http://www.w3.org/2000/svg">
<path d="M5 13.8C5 13.5 5.2 13.3 5.5 13.3H14.5C14.8 13.3 15 13.5 15 13.8C15 14.1 14.8 14.3 14.5 14.3H5.5C5.2 14.3 5 14.1 5 13.8ZM5 16.3C5 16 5.2 15.8 5.5 15.8H10.5C10.8 15.8 11 16 11 16.3C11 16.6 10.8 16.8 10.5 16.8H5.5C5.2 16.8 5 16.6 5 16.3Z" fill="#6B7280"/>
<path d="M16 2H4C2.9 2 2 2.9 2 4V10C2 11.1 2.9 12 4 12H16C17.1 12 18 11.1 18 10V4C18 2.9 17.1 2 16 2ZM17.1 4.5V10C17.1 10.6 16.7 11 16.1 11H4.1C3.5 11 3.1 10.6 3.1 10V4C3.1 3.4 3.5 3 4.1 3H16.1C16.7 3 17.1 3.4 17.1 4V4.5Z" fill="#6B7280"/>
</svg>
