<svg width="20" height="20" viewBox="0 0 20 20" fill="none" xmlns="http://www.w3.org/2000/svg">
<g clip-path="url(#clip0_2057_45)">
<path d="M9.5999 11.32C8.3299 11.32 7.8999 12.3 7.8999 13.02C7.8999 14.07 8.7299 14.72 9.5999 14.72C10.7399 14.72 11.2999 13.65 11.2999 13.02C11.2999 11.81 10.4599 11.32 9.5999 11.32Z" fill="black" fill-opacity="0.6"/>
<path d="M16 2H4C2.9 2 2 2.9 2 4V16C2 17.11 2.9 18.01 4 18.01H16C17.1 18.01 18 17.11 18 16.01V4.01C18 2.9 17.1 2 16 2ZM14 6.4C13.8 6.2 13.5 6.2 13.3 6.4L10 9.4L7.09 8.22C6.66 8.06 6.1 8.13 5.83 8.37L3.58 9.97V4.49C3.58 3.94 3.92 3.57 4.44 3.57H15.57C16.08 3.57 16.43 3.94 16.43 4.49V8.01L14.01 6.4H14ZM12.43 16.43L11.1 15.1C10.9 15.2 10.29 15.52 9.6 15.5C8.9 15.5 8.3 15.3 7.8 14.8C7.3 14.3 7.1 13.7 7.1 13C7.1 12.3 7.3 11.7 7.8 11.2C8.3 10.7 8.9 10.5 9.6 10.5C10.3 10.5 10.9 10.7 11.4 11.2C11.9 11.7 12.1 12.3 12.1 13C12.1 13.7 11.8 14.3 11.7 14.5C11.7 14.5 13.62 16.33 13.64 16.43H12.43Z" fill="black" fill-opacity="0.6"/>
</g>
<defs>
<clipPath id="clip0_2057_45">
<rect width="16" height="16" fill="white" transform="translate(2 2)"/>
</clipPath>
</defs>
</svg>
