<svg width="20" height="20" viewBox="0 0 20 20" fill="none" xmlns="http://www.w3.org/2000/svg">
<g clip-path="url(#clip0_2001_685)">
<path d="M16 2H4C2.9 2 2 2.9 2 4V16C2 17.11 2.9 18.01 4 18.01H16C17.1 18.01 18 17.11 18 16.01V4.01C18 2.9 17.1 2 16 2ZM14 6.4C13.8 6.2 13.5 6.2 13.3 6.4L10 9.4L7.26999 8.05C6.81999 7.78 6.46001 7.92 6.20001 8.1L3.57999 9.96V4.49C3.57999 3.94 3.92 3.57 4.44 3.57H15.57C16.08 3.57 16.43 3.94 16.43 4.49V8.01L14.01 6.4H14ZM7.20001 15.3H9.39999C9.69999 15.3 9.90001 15.3 10.1 15.1C10.8 14.7 11.1 13.8 10.7 13.1H11.5C11.5 13.3 11.6 13.6 11.6 13.8C11.6 15 10.6 16 9.39999 16H7.10001C5.90001 16 4.89999 15 4.89999 13.8C4.89999 12.6 5.90001 11.6 7.10001 11.6H8.89999C8.69999 11.8 8.49999 12.1 8.29999 12.3H7.20001C6.40001 12.3 5.70001 13 5.70001 13.8C5.70001 14.6 6.40001 15.3 7.20001 15.3ZM13.1 16H11.2C11.4 15.8 11.6 15.5 11.8 15.3H12.9C13.7 15.3 14.4 14.6 14.4 13.8C14.4 13 13.7 12.3 12.9 12.3H10.7C10.4 12.3 10.2 12.3 10 12.5C9.3 12.9 9 13.8 9.5 14.5H8.70001V13.8C8.70001 12.6 9.69999 11.6 10.9 11.6H13.1C14.3 11.6 15.3 12.6 15.3 13.8C15.3 15 14.3 16 13.1 16Z" fill="black" fill-opacity="0.6"/>
</g>
<defs>
<clipPath id="clip0_2001_685">
<rect width="16" height="16" fill="white" transform="translate(2 2)"/>
</clipPath>
</defs>
</svg>
