<svg width="20" height="20" viewBox="0 0 20 20" fill="none" xmlns="http://www.w3.org/2000/svg">
<g clip-path="url(#clip0_2202_246)">
<path d="M16 2H3.9C2.8 2 2 2.9 2 4V16C2 17.11 2.9 18.01 4 18.01H16C17.1 18.01 18 17.11 18 16.01V4.01C18 2.9 17.1 2 16 2ZM3.58 4.49C3.58 3.94 3.92 3.57 4.44 3.57H15.57C16.08 3.57 16.43 3.94 16.43 4.49V15.51C16.43 16.06 16.09 16.43 15.57 16.43H4.44C3.93 16.43 3.58 16.06 3.58 15.51V4.49Z" fill="black" fill-opacity="0.6"/>
<path d="M5.5 10.4H14.5C14.8 10.4 15 10.2 15 9.90002C15 9.60002 14.8 9.40002 14.5 9.40002H5.5C5.2 9.40002 5 9.60002 5 9.90002C5 10.2 5.2 10.4 5.5 10.4Z" fill="black" fill-opacity="0.6"/>
<path d="M5.5 7.29999H14.5C14.8 7.29999 15 7.09999 15 6.79999C15 6.49999 14.8 6.29999 14.5 6.29999H5.5C5.2 6.29999 5 6.49999 5 6.79999C5 7.09999 5.2 7.29999 5.5 7.29999Z" fill="black" fill-opacity="0.6"/>
<path d="M5.5 13.7H12.5C12.8 13.7 13 13.5 13 13.2C13 12.9 12.8 12.7 12.5 12.7H5.5C5.2 12.7 5 12.9 5 13.2C5 13.5 5.2 13.7 5.5 13.7Z" fill="black" fill-opacity="0.6"/>
</g>
<defs>
<clipPath id="clip0_2202_246">
<rect width="16" height="16" fill="white" transform="translate(2 2)"/>
</clipPath>
</defs>
</svg>
