<svg width="20" height="20" viewBox="0 0 20 20" fill="none" xmlns="http://www.w3.org/2000/svg">
<path d="M12.6311 7.03694C13.0348 7.41953 13.3306 7.85488 13.5186 8.34301C13.7065 8.83113 13.7726 9.33245 13.7169 9.84697C13.7169 10.0449 13.6404 10.2131 13.4872 10.3516C13.3341 10.4901 13.1531 10.5594 12.9443 10.5594C12.7355 10.5594 12.558 10.4901 12.4118 10.3516C12.2657 10.2131 12.1926 10.0449 12.1926 9.84697C12.2622 9.50396 12.2413 9.17414 12.1299 8.85752C12.0186 8.5409 11.8445 8.27045 11.6079 8.04617C11.3712 7.8219 11.0858 7.6504 10.7517 7.53166C10.4176 7.41293 10.0626 7.38654 9.68678 7.45251C9.47796 7.45251 9.30046 7.37995 9.15429 7.23483C9.00812 7.08971 8.93504 6.91821 8.93504 6.72032C8.93504 6.52243 9.00812 6.35422 9.15429 6.2157C9.30046 6.07718 9.47796 6.00792 9.68678 6.00792C10.2158 5.95515 10.7378 6.01781 11.2529 6.19591C11.768 6.37401 12.2274 6.65435 12.6311 7.03694ZM9.97912 5.19657C9.71462 5.19657 9.45708 5.20646 9.2065 5.22625C8.95592 5.24604 8.70534 5.28232 8.45476 5.33509C8.2181 5.37467 8.0058 5.34169 7.81787 5.23615C7.62993 5.13061 7.50116 4.9723 7.43155 4.76121C7.36195 4.55013 7.38631 4.34565 7.50464 4.14776C7.62297 3.94987 7.7935 3.83113 8.01624 3.79156C8.33643 3.72559 8.66009 3.67942 8.98724 3.65303C9.31439 3.62665 9.64501 3.61346 9.97912 3.61346C11.8863 3.61346 13.6299 4.08839 15.21 5.03826C16.79 5.98813 17.9977 7.26781 18.8329 8.87731C18.8886 8.98285 18.9304 9.09169 18.9582 9.20383C18.9861 9.31596 19 9.4314 19 9.55013C19 9.66887 18.9896 9.7843 18.9687 9.89644C18.9478 10.0086 18.9095 10.1174 18.8538 10.223C18.6032 10.7507 18.2935 11.2454 17.9246 11.7071C17.5557 12.1689 17.1485 12.591 16.703 12.9736C16.536 13.1187 16.3411 13.1781 16.1183 13.1517C15.8956 13.1253 15.7146 13.0198 15.5754 12.8351C15.4362 12.6504 15.377 12.4492 15.3979 12.2315C15.4188 12.0139 15.5128 11.8325 15.6798 11.6873C16.0139 11.3839 16.3202 11.0541 16.5986 10.6979C16.877 10.3417 17.1207 9.9591 17.3295 9.55013C16.6334 8.21768 15.6276 7.15897 14.3121 6.37401C12.9965 5.58905 11.5522 5.19657 9.97912 5.19657ZM9.97912 15.4868C8.11369 15.4868 6.40835 15.0086 4.86311 14.0521C3.31787 13.0956 2.09977 11.8391 1.20882 10.2823C1.13921 10.1768 1.08701 10.0613 1.0522 9.93602C1.0174 9.81069 1 9.68206 1 9.55013C1 9.41821 1.01392 9.29288 1.04176 9.17414C1.06961 9.05541 1.11833 8.93668 1.18794 8.81794C1.46636 8.29024 1.79002 7.78562 2.15893 7.30409C2.52784 6.82256 2.94896 6.38391 3.42227 5.98813L1.6891 4.32586C1.53596 4.16755 1.46288 3.97955 1.46984 3.76187C1.4768 3.5442 1.55684 3.3628 1.70998 3.21768C1.86311 3.07256 2.058 3 2.29466 3C2.53132 3 2.72622 3.07256 2.87935 3.21768L17.0789 16.6741C17.232 16.8193 17.3121 17.0007 17.319 17.2183C17.326 17.436 17.2459 17.624 17.0789 17.7823C16.9258 17.9274 16.7309 18 16.4942 18C16.2575 18 16.0626 17.9274 15.9095 17.7823L12.9861 15.0515C12.4988 15.1966 12.0046 15.3054 11.5035 15.378C11.0023 15.4505 10.4942 15.4868 9.97912 15.4868ZM4.59165 7.09631C4.18794 7.43931 3.81903 7.8153 3.48492 8.22427C3.15081 8.63325 2.86543 9.0752 2.62877 9.55013C3.32483 10.8826 4.33063 11.9413 5.64617 12.7263C6.96172 13.5112 8.40603 13.9037 9.97912 13.9037C10.2575 13.9037 10.529 13.8872 10.7935 13.8542C11.058 13.8212 11.3295 13.785 11.6079 13.7454L10.8561 12.9934C10.703 13.033 10.5568 13.0627 10.4176 13.0825C10.2784 13.1022 10.1323 13.1121 9.97912 13.1121C8.93504 13.1121 8.04756 12.7658 7.31671 12.0732C6.58585 11.3806 6.22042 10.5396 6.22042 9.55013C6.22042 9.40501 6.23086 9.26649 6.25174 9.13456C6.27262 9.00264 6.30394 8.86412 6.34571 8.719L4.59165 7.09631Z" fill="black" fill-opacity="0.6"/>
</svg>
