<svg width="20" height="20" viewBox="0 0 20 20" fill="none" xmlns="http://www.w3.org/2000/svg">
<path d="M12.6748 12.2625C13.4091 11.5042 13.7762 10.5833 13.7762 9.50001C13.7762 8.41667 13.4091 7.49584 12.6748 6.73751C11.9406 5.97917 11.049 5.60001 10 5.60001C8.95105 5.60001 8.05944 5.97917 7.32517 6.73751C6.59091 7.49584 6.22378 8.41667 6.22378 9.50001C6.22378 10.5833 6.59091 11.5042 7.32517 12.2625C8.05944 13.0208 8.95105 13.4 10 13.4C11.049 13.4 11.9406 13.0208 12.6748 12.2625ZM8.3951 11.1575C7.95455 10.7025 7.73427 10.15 7.73427 9.50001C7.73427 8.85001 7.95455 8.29751 8.3951 7.84251C8.83566 7.38751 9.37063 7.16001 10 7.16001C10.6294 7.16001 11.1643 7.38751 11.6049 7.84251C12.0455 8.29751 12.2657 8.85001 12.2657 9.50001C12.2657 10.15 12.0455 10.7025 11.6049 11.1575C11.1643 11.6125 10.6294 11.84 10 11.84C9.37063 11.84 8.83566 11.6125 8.3951 11.1575ZM4.87063 14.44C3.32517 13.4 2.1049 12.0278 1.20979 10.3233C1.13986 10.1933 1.08741 10.0597 1.05245 9.92251C1.01748 9.78529 1 9.64445 1 9.50001C1 9.35556 1.01748 9.21473 1.05245 9.07751C1.08741 8.94029 1.13986 8.80667 1.20979 8.67667C2.1049 6.97223 3.32517 5.60001 4.87063 4.56001C6.41608 3.52001 8.12587 3.00001 10 3.00001C11.8741 3.00001 13.5839 3.52001 15.1294 4.56001C16.6748 5.60001 17.8951 6.97223 18.7902 8.67667C18.8601 8.80667 18.9126 8.94029 18.9476 9.07751C18.9825 9.21473 19 9.35556 19 9.50001C19 9.64445 18.9825 9.78529 18.9476 9.92251C18.9126 10.0597 18.8601 10.1933 18.7902 10.3233C17.8951 12.0278 16.6748 13.4 15.1294 14.44C13.5839 15.48 11.8741 16 10 16C8.12587 16 6.41608 15.48 4.87063 14.44ZM14.3531 12.9775C15.6748 12.1181 16.6853 10.9589 17.3846 9.50001C16.6853 8.04112 15.6748 6.88195 14.3531 6.02251C13.0315 5.16306 11.5804 4.73334 10 4.73334C8.41958 4.73334 6.96853 5.16306 5.64685 6.02251C4.32517 6.88195 3.31469 8.04112 2.61538 9.50001C3.31469 10.9589 4.32517 12.1181 5.64685 12.9775C6.96853 13.837 8.41958 14.2667 10 14.2667C11.5804 14.2667 13.0315 13.837 14.3531 12.9775Z" fill="black" fill-opacity="0.6"/>
</svg>
