<svg width="20" height="20" viewBox="0 0 20 20" fill="none" xmlns="http://www.w3.org/2000/svg">
<g clip-path="url(#clip0_2202_237)">
<path d="M12.67 11.03C13.05 11.03 13.42 11.03 13.8 10.67C13.67 11.15 13.3 11.63 12.79 12.1C12.54 12.34 12.54 12.58 12.79 12.82C13.04 13.06 13.29 13.06 13.54 12.82C15.43 11.03 15.18 9.00002 14.42 7.92002C13.79 6.96002 12.53 6.73002 11.53 7.32002C10.9 7.68002 10.52 8.28002 10.52 8.99002C10.52 10.07 11.4 11.02 12.66 11.02L12.67 11.03Z" fill="black" fill-opacity="0.6"/>
<path d="M7.13999 11.03C7.51999 11.03 7.88999 11.03 8.26999 10.67C8.13999 11.15 7.76999 11.63 7.25999 12.1C7.00999 12.34 7.00999 12.58 7.25999 12.82C7.50999 13.06 7.75999 13.06 8.00999 12.82C9.89999 11.03 9.64999 9.00002 8.88999 7.92002C8.25999 6.96002 6.99999 6.73002 5.99999 7.32002C5.36999 7.68002 4.98999 8.28002 4.98999 8.99002C4.98999 10.07 5.86999 11.02 7.12999 11.02L7.13999 11.03Z" fill="black" fill-opacity="0.6"/>
<path d="M16 2H3.9C2.8 2 2 2.9 2 4V16C2 17.11 2.9 18.01 4 18.01H16C17.1 18.01 18 17.11 18 16.01V4.01C18 2.9 17.1 2 16 2ZM3.58 4.49C3.58 3.94 3.92 3.57 4.44 3.57H15.57C16.08 3.57 16.43 3.94 16.43 4.49V15.51C16.43 16.06 16.09 16.43 15.57 16.43H4.43C3.92 16.43 3.57 16.06 3.57 15.51V4.49H3.58Z" fill="black" fill-opacity="0.6"/>
</g>
<defs>
<clipPath id="clip0_2202_237">
<rect width="16" height="16" fill="white" transform="translate(2 2)"/>
</clipPath>
</defs>
</svg>
