<svg width="20" height="20" viewBox="0 0 20 20" fill="none" xmlns="http://www.w3.org/2000/svg">
<g clip-path="url(#clip0_2220_201)">
<path d="M2.5 4H17.5C17.8 4 18 3.8 18 3.5C18 3.2 17.8 3 17.5 3H2.5C2.2 3 2 3.2 2 3.5C2 3.8 2.2 4 2.5 4Z" fill="#6B7280"/>
<path d="M2 16.5C2 16.2 2.2 16 2.5 16H17.5C17.8 16 18 16.2 18 16.5C18 16.8 17.8 17 17.5 17H2.5C2.2 17 2 16.8 2 16.5Z" fill="#6B7280"/>
<path d="M6.5 13.5C6.2 13.5 6 13.7 6 14C6 14.3 6.2 14.5 6.5 14.5H17.5C17.8 14.5 18 14.3 18 14C18 13.7 17.8 13.5 17.5 13.5H6.5Z" fill="#A3A3A3"/>
<path d="M6.5354 5.70325C6.2354 5.70325 6.0354 5.90325 6.0354 6.20325C6.0354 6.50325 6.2354 6.70325 6.5354 6.70325H17.5354C17.8354 6.70325 18.0354 6.50325 18.0354 6.20325C18.0354 5.90325 17.8354 5.70325 17.5354 5.70325H6.5354Z" fill="#A3A3A3"/>
<path d="M6.5 8.40009C6.2 8.40009 6 8.60009 6 8.90009C6 9.20009 6.2 9.40009 6.5 9.40009H17.5C17.8 9.40009 18 9.20009 18 8.90009C18 8.60009 17.8 8.40009 17.5 8.40009H6.5Z" fill="#A3A3A3"/>
<path d="M6.5 11C6.2 11 6 11.2 6 11.5C6 11.8 6.2 12 6.5 12H17.5C17.8 12 18 11.8 18 11.5C18 11.2 17.8 11 17.5 11H6.5Z" fill="#A3A3A3"/>
</g>
<defs>
<clipPath id="clip0_2220_201">
<rect width="16" height="16" fill="white" transform="translate(2 2)"/>
</clipPath>
</defs>
</svg>
