<svg width="20" height="20" viewBox="0 0 20 20" fill="none" xmlns="http://www.w3.org/2000/svg">
<path d="M9.5 2.5V7.5C9.5 7.8 9.7 8 10 8C10.3 8 10.5 7.8 10.5 7.5L10.5 2.5C10.5 2.2 10.3 2 10 2C9.7 2 9.5 2.2 9.5 2.5Z" fill="#A3A3A3"/>
<path d="M2.5625 11.5H17.4375C17.775 11.5 18 11.2 18 10.75C18 10.3 17.775 10 17.4375 10H2.5625C2.225 10 2 10.3 2 10.75C2 11.2 2.225 11.5 2.5625 11.5Z" fill="#6B7280"/>
<path d="M2.5625 14.5H17.4375C17.775 14.5 18 14.2 18 13.75C18 13.3 17.775 13 17.4375 13H2.5625C2.225 13 2 13.3 2 13.75C2 14.2 2.225 14.5 2.5625 14.5Z" fill="#6B7280"/>
<path d="M6 16.5C6 16.2 6.2 16 6.5 16H13.5C13.8 16 14 16.2 14 16.5C14 16.8 13.8 17 13.5 17H6.5C6.2 17 6 16.8 6 16.5Z" fill="#6B7280"/>
</svg>
