<svg width="20" height="20" viewBox="0 0 20 20" fill="none" xmlns="http://www.w3.org/2000/svg">
<g clip-path="url(#clip0_2202_290)">
<path d="M17.45 2.92999C16.99 2.92999 16.6799 3.32999 16.6799 3.62999V16.41C16.6799 16.71 16.99 17.1 17.45 17.1C17.91 17.1 18.2199 16.71 18.2199 16.41V3.62999C18.2199 3.32999 17.91 2.92999 17.45 2.92999Z" fill="black" fill-opacity="0.6"/>
<path d="M2.97998 2.92999C2.51998 2.92999 2.20996 3.32999 2.20996 3.62999V16.41C2.20996 16.71 2.51998 17.1 2.97998 17.1C3.43998 17.1 3.74997 16.71 3.74997 16.41V3.62999C3.74997 3.32999 3.43998 2.92999 2.97998 2.92999Z" fill="black" fill-opacity="0.6"/>
<path d="M13.8201 2.01001H6.6001C5.5001 2.01001 4.6001 2.91001 4.6001 4.01001V16.01C4.6001 17.11 5.5001 18.01 6.6001 18.01H13.8201C14.9201 18.01 15.8201 17.11 15.8201 16.01V4.01001C15.8201 2.91001 14.9201 2.01001 13.8201 2.01001ZM7.03009 3.58001H13.3801C13.8901 3.58001 14.2401 3.95001 14.2401 4.50001V7.37001L12.6101 6.01001C12.4501 5.85001 12.2001 5.85001 12.0401 6.01001L10.1601 8.46001L8.61008 7.40001C8.45008 7.24001 8.20009 7.32001 8.12009 7.40001L6.2001 9.09001V4.50001C6.2001 3.95001 6.54009 3.58001 7.06009 3.58001H7.03009ZM14.1601 14.2L12.4601 15.1C12.3001 15.19 12.1601 15.1 12.1601 15V13C12.1601 12.9 12.2601 12.8 12.4601 12.9L14.1601 13.9C14.2701 13.98 14.2601 14.1 14.1601 14.2ZM9.30008 15.2V15.3C9.30008 15.6 9.0001 15.8 8.7001 15.6L6.40009 14.3C6.10009 14.2 6.10009 13.8 6.40009 13.6L8.7001 12.3C9.0001 12.2 9.30008 12.3 9.30008 12.6V15.2Z" fill="black" fill-opacity="0.6"/>
</g>
<defs>
<clipPath id="clip0_2202_290">
<rect width="16" height="16" fill="white" transform="translate(2 2)"/>
</clipPath>
</defs>
</svg>
