<svg width="22" height="13" viewBox="0 0 22 13" fill="none" xmlns="http://www.w3.org/2000/svg">
<path d="M20.4403 6.81121L0.400025 6.6989C0.286687 6.6989 0.191683 6.66245 0.115013 6.58955C0.0383434 6.51665 8.29754e-06 6.42631 8.29754e-06 6.31855C8.29754e-06 6.21078 0.0383434 6.12045 0.115013 6.04755C0.191683 5.97465 0.286687 5.9382 0.400025 5.9382L20.4403 6.05051L16.0303 0.637084C15.957 0.567353 15.9203 0.48019 15.9203 0.375594C15.9203 0.270998 15.9603 0.180666 16.0403 0.104596C16.1137 0.0348653 16.207 0 16.3204 0C16.4337 0 16.527 0.0348653 16.6004 0.104596L21.6903 6.16462C21.7303 6.20265 21.7587 6.24386 21.7753 6.28823C21.792 6.3326 21.8003 6.38015 21.8003 6.43086C21.8003 6.48157 21.792 6.52912 21.7753 6.57349C21.7587 6.61786 21.7303 6.65907 21.6903 6.6971L16.4804 12.8713C16.407 12.941 16.3154 12.9759 16.2053 12.9759C16.0953 12.9759 16.0003 12.941 15.9203 12.8713C15.8403 12.7952 15.8003 12.7049 15.8003 12.6003C15.8003 12.4957 15.8403 12.4053 15.9203 12.3293L20.4403 6.81121Z" fill="#808080"/>
</svg>
