<svg width="22" height="13" viewBox="0 0 22 13" fill="none" xmlns="http://www.w3.org/2000/svg">
<path d="M1.36002 6.16486L21.4003 6.27718C21.5136 6.27718 21.6086 6.31363 21.6853 6.38653C21.762 6.45943 21.8003 6.54976 21.8003 6.65752C21.8003 6.76529 21.762 6.85562 21.6853 6.92852C21.6086 7.00142 21.5136 7.03787 21.4003 7.03787L1.36002 6.92556L5.76995 12.339C5.84329 12.4087 5.87997 12.4959 5.87997 12.6005C5.87997 12.7051 5.83995 12.7954 5.75995 12.8715C5.68661 12.9412 5.59328 12.9761 5.47994 12.9761C5.3666 12.9761 5.27327 12.9412 5.19993 12.8715L0.109967 6.81146C0.0699659 6.77342 0.0416303 6.73222 0.0249639 6.68784C0.00829752 6.64347 -3.75892e-05 6.59592 -3.75848e-05 6.54521C-3.75803e-05 6.4945 0.00829754 6.44696 0.024964 6.40258C0.0416304 6.35821 0.0699659 6.317 0.109967 6.27897L5.31994 0.104807C5.39327 0.0350766 5.48494 0.000212197 5.59495 0.000212206C5.70495 0.000212216 5.79996 0.0350766 5.87997 0.104807C5.95997 0.180877 5.99997 0.271207 5.99997 0.375804C5.99997 0.4804 5.95997 0.570731 5.87997 0.646801L1.36002 6.16486Z" fill="#808080"/>
</svg>
